<?xml version="1.0" standalone="no"?>
<!DOCTYPE svg PUBLIC "-//W3C//DTD SVG 20010904//EN"
 "http://www.w3.org/TR/2001/REC-SVG-20010904/DTD/svg10.dtd">
<svg version="1.0" xmlns="http://www.w3.org/2000/svg"
 width="290.000000pt" height="340.000000pt" viewBox="0 0 290.000000 340.000000"
 preserveAspectRatio="xMidYMid meet">

<g transform="translate(0.000000,340.000000) scale(0.100000,-0.100000)"
fill="#000000" stroke="none">
<path d="M936 2613 c-3 -21 -6 -75 -6 -121 l0 -83 -53 -52 c-77 -77 -110 -144
-115 -239 l-5 -78 -71 6 c-55 5 -89 15 -151 45 -48 24 -102 42 -134 46 l-54 6
6 -65 c3 -36 15 -91 25 -122 17 -50 18 -62 6 -94 -29 -82 -5 -243 52 -353 38
-71 135 -182 198 -226 26 -18 29 -27 32 -79 4 -87 12 -121 46 -199 95 -218
280 -307 673 -322 144 -5 344 19 466 57 82 25 174 85 223 145 65 79 116 223
116 327 0 48 3 55 29 71 15 9 58 47 95 84 76 77 139 192 156 282 13 69 13 197
0 221 -7 13 -4 41 10 96 11 42 20 100 20 127 l0 50 -52 -6 c-29 -4 -86 -24
-132 -46 -61 -30 -98 -41 -147 -45 l-66 -5 -6 63 c-9 100 -40 167 -113 246
l-64 70 0 93 c0 105 -6 137 -26 137 -39 0 -116 -51 -193 -128 -61 -60 -97 -88
-134 -102 -28 -11 -67 -33 -88 -50 -46 -36 -53 -37 -93 -6 -37 28 -102 61
-136 69 -14 3 -39 24 -55 45 -62 81 -186 171 -236 172 -11 0 -18 -12 -23 -37z
m110 -32 c33 -22 79 -61 104 -86 l45 -47 -70 7 c-52 5 -82 3 -115 -9 -25 -9
-48 -16 -52 -16 -10 0 -10 80 -2 144 4 27 12 46 19 46 7 0 39 -18 71 -39z
m848 17 c3 -13 6 -58 6 -100 l0 -76 -32 16 c-24 12 -55 17 -116 15 l-82 -1 17
22 c41 50 164 146 189 146 6 0 14 -10 18 -22z m-628 -201 c58 -20 134 -75 134
-97 0 -14 6 -18 28 -16 16 2 26 9 25 17 -3 16 73 70 130 94 21 9 83 19 137 22
93 6 102 4 154 -21 62 -30 130 -102 166 -174 16 -32 25 -71 29 -131 6 -85 6
-86 31 -82 14 2 57 4 95 4 73 1 138 -23 192 -70 28 -24 73 -119 73 -153 0 -62
-32 -200 -61 -258 -34 -70 -141 -186 -221 -240 -48 -32 -61 -52 -33 -52 18 0
21 -74 4 -135 -54 -196 -196 -325 -397 -360 -222 -39 -371 -41 -599 -9 -209
29 -335 109 -404 258 -52 111 -76 246 -45 246 37 0 21 23 -47 69 -126 85 -215
209 -243 340 -37 178 -1 276 129 343 51 26 142 34 191 18 21 -6 39 -10 42 -7
2 2 6 38 8 79 6 136 84 259 199 315 47 22 60 24 148 19 53 -3 114 -11 135 -19z
m-764 -319 l67 -31 -57 -34 c-31 -19 -67 -44 -79 -55 -18 -17 -24 -18 -28 -7
-8 23 -35 143 -35 157 0 19 49 8 132 -30z m1978 25 c0 -30 -21 -139 -30 -153
-7 -11 -16 -7 -44 18 -20 18 -54 41 -76 52 -22 11 -40 23 -40 26 0 6 100 52
140 64 39 13 50 11 50 -7z"/>
<path d="M1016 2221 c-93 -62 -98 -204 -11 -330 20 -28 33 -56 30 -61 -3 -6
-1 -10 4 -10 6 0 11 -5 11 -11 0 -19 52 -59 93 -71 29 -9 46 -8 77 2 21 7 37
16 35 20 -2 3 5 12 15 20 10 8 17 17 14 22 -3 4 -1 8 5 8 5 0 15 25 21 55 11
55 6 129 -13 175 -6 14 -10 28 -9 33 1 4 -2 7 -7 7 -5 0 -14 13 -20 28 -15 35
-88 111 -119 123 -38 15 -95 10 -126 -10z m119 -25 c48 -20 88 -88 114 -191
27 -109 27 -121 -8 -156 -82 -82 -225 21 -262 188 -11 47 -10 56 12 100 35 69
77 87 144 59z"/>
<path d="M1695 2221 c-47 -29 -71 -61 -107 -136 -28 -62 -32 -80 -32 -162 -1
-50 -4 -89 -8 -86 -12 7 -10 -5 12 -51 24 -53 60 -71 126 -61 37 5 56 17 105
63 71 67 86 93 109 187 28 114 13 185 -50 239 -39 32 -109 36 -155 7z m143
-45 c36 -33 37 -37 37 -103 0 -57 -5 -76 -29 -118 -70 -122 -161 -168 -228
-115 -35 27 -39 58 -17 155 21 98 36 129 81 171 59 56 102 59 156 10z"/>
<path d="M581 1834 c-91 -77 -46 -250 105 -400 91 -91 113 -105 164 -106 70
-1 116 47 127 133 6 42 -14 156 -28 165 -5 3 -9 14 -9 25 0 11 -8 23 -17 26
-10 4 -29 21 -43 37 -111 137 -225 183 -299 120z m174 -43 c54 -38 121 -138
146 -221 19 -63 19 -71 5 -98 -18 -36 -33 -42 -95 -42 -59 0 -113 34 -166 103
-52 68 -75 124 -75 185 0 46 4 58 30 84 28 27 35 30 73 24 23 -4 60 -19 82
-35z"/>
<path d="M2133 1853 c-36 -7 -126 -96 -167 -165 -20 -35 -44 -90 -53 -123 -8
-33 -18 -67 -21 -75 -14 -38 -13 -70 2 -76 9 -3 16 -11 16 -18 0 -10 35 -38
50 -41 89 -17 88 -17 162 19 88 42 159 102 184 153 14 30 17 58 15 137 -4 170
-49 216 -188 189z m113 -41 c53 -42 56 -95 14 -189 -34 -76 -89 -147 -134
-174 -45 -28 -139 -26 -167 2 -48 48 -3 187 99 299 69 77 141 100 188 62z"/>
<path d="M1313 1599 c-57 -22 -107 -71 -139 -139 -17 -35 -23 -40 -52 -40 -43
0 -90 -22 -132 -63 -19 -18 -30 -26 -26 -19 4 6 5 12 2 12 -15 0 -46 -89 -46
-132 0 -84 35 -156 107 -219 114 -99 151 -111 359 -117 153 -3 179 -2 253 18
159 43 287 167 299 290 4 48 -13 121 -28 117 -4 -1 -30 22 -57 52 -45 49 -53
54 -102 59 -51 5 -54 6 -71 46 -9 22 -36 60 -60 82 -72 71 -202 93 -307 53z
m181 -20 c71 -20 112 -53 145 -121 36 -71 43 -78 89 -78 52 0 90 -28 119 -89
20 -43 24 -64 20 -100 -4 -40 -12 -53 -56 -93 -105 -97 -221 -132 -415 -126
-121 3 -137 6 -206 36 -145 63 -200 118 -200 202 0 98 52 163 139 175 48 6 50
9 75 59 32 66 70 102 132 126 56 22 102 25 158 9z"/>
</g>
</svg>
